<svg xmlns="http://www.w3.org/2000/svg" viewBox="0 0 128 128"><path fill="#1572B6" d="M19.67 113.87L9.66 1.66h109.94l-10.02 112.19L64.05 126.3z"/><path fill="#33A9DC" d="M64 116.8l36.38-10.09 8.56-95.88H64z"/><path fill="#fff" d="M64 52.46h18.3l1.25-14.1H64V24.6h34.96l-.33 3.46-3.16 35.4H64zm0 35.74l-.06.02-15.33-4.14-.98-10.98H33.82l1.93 21.61L64 102.53l.06-.02z"/><path fill="#EBEBEB" d="M64 52.46v13.76H46.88l-1.26-14.1H29.85l3.17 35.4 30.92 8.57v-14.32l-.06.02-15.33-4.14-.98-10.98H64V52.46zm0-27.87v13.77h33.24l.28-3.09.62-6.98.31-3.7H64z"/></svg>
