<svg xmlns="http://www.w3.org/2000/svg" viewBox="0 0 128 128"><path fill="#2396ED" d="M73.8 50.8H48.7c.7-8.6 4.4-14.7 11.4-14.7 7.7 0 13.1 6.5 13.7 14.7zM128 74.2c0-2.6-.3-5.4-.9-7.4-1-3.3-3.1-6.1-5.7-8.2-1.5-1.2-3.2-2.2-5-3-.2-.1-.4-.1-.6-.2-2.2-.8-4.6-1.2-7-1.2H95.3c-.8-8-4-15.4-9-20.9-5.6-6.2-13.6-10.3-22.5-10.3-8.2 0-15.7 3.4-21.3 9-6 5.9-10 14.3-10.8 24.2h-5.5c-3.8 0-7.4.8-10.4 2.3a20.3 20.3 0 0 0-12.2 14.1A25.3 25.3 0 0 0 3 76.7c0 5 1.4 9.8 3.9 13.7A24.8 24.8 0 0 0 27 101.8h79.7c7.2 0 13.4-2.6 18-7.1a24.2 24.2 0 0 0 3.3-28.5z"/></svg>
