<svg xmlns="http://www.w3.org/2000/svg" viewBox="0 0 128 128"><path fill="#4285F4" d="M80.6 40.3h.4l-.2-.2 14-14.3c-11.6-10.3-27-16.2-43.2-15.6C26.7 11.2 6.7 31.8 3.3 56.5h19.2C25.5 40 41.1 27 60 26.9c8.3 0 15.6 2.8 21.3 7.5l-.7 5.9z"/><path fill="#EA4335" d="M105.3 52.5H84.1c2.7 5.3 4.1 11.3 3.8 17.6-.4 9.7-4.7 18.3-11.7 24.4l14.6 14.8c12.1-10.6 19.4-26 19.4-42.7 0-5-1-9.8-2.7-14.3l-2.2.2z"/><path fill="#FBBC04" d="M60 101.1c-9.7 0-18.4-4.2-24.6-10.8L20.8 104c9.7 9.7 22.8 15.3 36.4 16 14 .7 27.3-4.6 37.2-14.4L80 91.4c-5.4 5.3-12.6 8.5-20 9.7z"/><path fill="#34A853" d="M22.5 56.5H3.3c-1.8 8.8-1.5 18.3 1.3 27.1 2.2 6.9 5.6 13.2 10.2 18.4l14.5-13.7c-5-6.1-7.8-13.7-8.2-21.5-.2-3.5.1-7 .9-10.3h.5z"/></svg>
