<svg xmlns="http://www.w3.org/2000/svg" viewBox="0 0 128 128"><path fill="#F0DB4F" d="M1.408 1.408h125.184v125.185H1.408z"/><path fill="#323330" d="M116.347 96.736c-.917-5.711-4.641-10.508-15.672-14.981-3.832-1.761-8.104-3.022-9.377-5.926-.452-1.69-.512-2.642-.226-3.665.821-3.32 4.784-4.355 7.925-3.403 2.023.678 3.938 2.237 5.093 4.724 5.402-3.498 5.391-3.475 9.163-5.879-1.381-2.141-2.118-3.129-3.022-4.045-3.249-3.629-7.676-5.498-14.756-5.355l-3.688.477c-3.534.893-6.902 2.748-8.877 5.235-5.926 6.724-4.236 18.492 2.975 23.335 7.104 5.332 17.54 6.545 18.873 11.531 1.297 6.104-4.486 8.08-10.234 7.378-4.236-.881-6.592-3.034-9.139-6.949-4.688 2.713-4.688 2.713-9.508 5.485 1.143 2.499 2.344 3.63 4.236 5.766 9.075 9.465 31.883 8.966 35.947-5.436.149-.426 1.371-4.017.593-9.328zM73.49 64.461l-.011.021H62.055c0 5.467-.011 10.912-.011 16.401 0 3.452.167 6.604-.451 7.58-1.071 2.237-3.939 1.94-5.235 1.548-1.333-.631-2.022-1.512-2.832-2.748-.226-.345-.391-.631-.427-.631l-9.462 5.879c1.583 3.249 3.915 6.069 6.879 7.878 4.427 2.676 10.369 3.535 16.616 2.108 4.022-1.12 7.546-3.534 9.401-7.045 2.712-4.855 2.141-10.775 2.118-17.386.048-7.082.011-14.142.011-21.263z"/></svg>
