<svg xmlns="http://www.w3.org/2000/svg" viewBox="0 0 128 128"><path fill="#439934" d="M64 7.83c-23.272 0-43.333 10.558-55.846 26.123L64 64 8.154 93.95C20.667 109.612 40.728 120.17 64 120.17c31.03 0 56.17-25.14 56.17-56.17S95.03 7.83 64 7.83z"/><path fill="#45A538" d="M119.927 55.76C117.252 28.263 93.528 7.83 64 7.83S10.748 28.263 8.073 55.76a56.29 56.29 0 0 0 0 16.481C10.748 99.736 34.472 120.17 64 120.17s53.252-20.433 55.927-47.93a56.29 56.29 0 0 0 0-16.48z"/><path fill="#fff" d="M91.682 50.05L71.786 64l19.896 13.95a32.69 32.69 0 0 0 0-27.9zM64 96.69a32.67 32.67 0 0 1-27.682-15.31L56.214 68.88 64 64l7.786 4.88L91.682 81.38A32.67 32.67 0 0 1 64 96.69zm0-65.38a32.67 32.67 0 0 1 27.682 15.31L71.786 59.12 64 64l-7.786-4.88-19.896-12.5A32.67 32.67 0 0 1 64 31.31z"/></svg>
