<svg xmlns="http://www.w3.org/2000/svg" viewBox="0 0 128 128"><path fill="#336791" d="M93.809 92.112c.785-6.533.55-7.492 5.416-6.433l1.235.108c3.742.17 8.637-.602 11.514-1.938 6.057-2.811 9.66-7.475 3.708-6.249-13.588 2.801-14.602-.404-14.602-.404 14.455-21.416 20.504-48.617 15.3-55.273-14.18-18.127-38.752-9.543-39.148-9.32l-.136.024c-2.698-.52-5.726-.823-9.124-.862-6.18-.073-10.87 1.608-14.41 4.27 0 0-43.766-18.04-41.73 22.662.434 8.652 12.438 65.455 26.756 48.296 5.242-6.288 10.297-11.593 10.297-11.593 2.508 1.645 5.508 2.484 8.664 2.188l.243-.212c-.072.702-.04 1.389.09 2.187-3.423 3.828-2.418 4.5-9.27 5.908-6.942 1.427-2.86 3.96-.204 4.623 3.229.804 10.698 1.943 15.73-5.09l-.214.882c1.422 1.136 2.431 7.388 2.267 13.045-.164 5.66-.286 9.548.501 12.587.786 3.04 1.563 9.892 8.248 7.85 5.594-1.71 8.493-6.14 8.885-13.54.28-5.267.544-4.5 1.063-9.166l.57-3.249c.662-5.59.096-7.394 3.89-6.556l.923.149c2.857.311 6.6-.165 8.91-1.096 5.001-2.013 7.953-5.365 3.094-4.482z"/><path fill="#fff" d="M60.087 108.87a15.36 15.36 0 0 1-2.3-4.29c-.89-2.406-1.194-5.024-1.094-9.076.17-6.895-.964-12.156-2.694-14.262-1.222-1.183-2.637-1.69-3.786-1.5.65-2.62 3.36-4.9 9.87-6.22 6.752-1.38 5.15-2.05 9.82-6.07.49-.42.06-.01.52-.46-1.77 1.95-1.23 5.7 1.74 10.54l.138.224.15.04c6.14 1.65 11.04 1.17 13.96-.2.18.44.38 1.15.63 2.44.96 5.02 1.04 12.07-.95 21.3-.38 1.76-.58 2.73-.94 3.74l-.58 1.64-.14.42c-1.29 3.87-3.33 6.83-7.52 7.85-3.13.77-4.94-.98-5.4-2.53-.16-.54-.27-1.18-.39-2.28-.26-2.17-.42-3.3-.66-4.84a52.22 52.22 0 0 0-.82-4.18c-.5-1.87-1.32-2.81-2.56-2.81-1.82 0-2.87 1.7-3.11 2.72a25.3 25.3 0 0 0-.28 5.79c.04 1.43-.04 2.92-.18 4.2-.12 1.17-.35 1.94-.68 2.34z"/></svg>
