<svg xmlns="http://www.w3.org/2000/svg" viewBox="0 0 128 128"><path fill="#3776AB" d="M49.33 62h29.159C86.606 62 93 55.132 93 46.981V19.183c0-7.912-6.632-13.856-14.555-15.176-5.014-.835-10.195-1.215-15.187-1a81.2 81.2 0 0 0-13.855 1.67C42.789 6.196 40 10.093 40 16.142v10.886h27v4.404H28.154c-8.044 0-15.089 4.834-17.295 14.029-2.543 10.535-2.657 17.103 0 28.103 1.968 8.19 6.67 14.029 14.713 14.029h9.517V76.572c0-9.133 7.9-17.188 17.295-17.188zm-1.932-33.73a5.484 5.484 0 0 1-5.496-5.572c0-3.085 2.442-5.6 5.496-5.6a5.517 5.517 0 0 1 5.534 5.6 5.49 5.49 0 0 1-5.534 5.572z"/><path fill="#FFD43B" d="M91.682 28.593h-8.727v11.32c0 9.525-8.161 17.573-17.295 17.573H36.5c-7.876 0-14.556 6.838-14.556 14.714v27.798c0 7.912 6.879 12.564 14.556 14.857 9.192 2.743 18.004 3.24 29.159 0 7.418-2.165 14.555-6.52 14.555-14.857V89.634H53.012v-4.403h43.714c8.044 0 11.039-5.613 14.555-14.029 3.631-8.66 3.477-16.998 0-28.103-2.497-7.997-7.27-14.029-14.599-14.029-3.258 0-5 .487-5 .487zm-16.665 62.366a5.517 5.517 0 0 1 5.534 5.6 5.49 5.49 0 0 1-5.534 5.571 5.484 5.484 0 0 1-5.496-5.571c0-3.085 2.442-5.6 5.496-5.6z"/></svg>
