<svg xmlns="http://www.w3.org/2000/svg" viewBox="0 0 128 128"><path fill="#007acc" d="M2 63.91v62.5h125v-125H2zm100.73-5.01h-23.1V91.7h-14.64V58.9H41.9V47.04h60.84zM52.37 102.74V94.3c0-.9-.04-1.79-.14-2.65a5.38 5.38 0 0 0-.43-1.94 2.51 2.51 0 0 0-.94-1.22 3.12 3.12 0 0 0-1.73-.43c-.71 0-1.3.14-1.79.43a2.77 2.77 0 0 0-1.08 1.22 5.6 5.6 0 0 0-.54 1.94 22.1 22.1 0 0 0-.14 2.65v8.44a21.3 21.3 0 0 0 .14 2.58 5.57 5.57 0 0 0 .54 1.94 2.77 2.77 0 0 0 1.08 1.22c.5.29 1.08.43 1.79.43a3.12 3.12 0 0 0 1.73-.43 2.51 2.51 0 0 0 .94-1.22 5.38 5.38 0 0 0 .43-1.94 21.3 21.3 0 0 0 .14-2.58z"/></svg>
